HIERARCHY
ROOT hip
{
	OFFSET 0.000000 0.000000 0.000000 
	CHANNELS 6 Xposition Yposition Zposition Xrotation Zrotation Yrotation
	JOINT abdomen
	{
		OFFSET 0.000000 3.402643 0.000000 
		CHANNELS 3 Xrotation Zrotation Yrotation
		JOINT chest
		{
			OFFSET 0.000000 8.438565 -0.680529 
			CHANNELS 3 Xrotation Zrotation Yrotation
			JOINT neck
			{
				OFFSET 0.000000 10.207942 -0.272212 
				CHANNELS 3 Xrotation Zrotation Yrotation
				JOINT head
				{
					OFFSET 0.000000 3.130431 0.000000 
					CHANNELS 3 Xrotation Zrotation Yrotation
					End Site
					{
						OFFSET 0.000000 3.130435 0.000000 
					}
				}
			}
			JOINT lCollar
			{
				OFFSET 3.470700 6.669187 -0.816635 
				CHANNELS 3 Zrotation Yrotation Xrotation
				JOINT lShldr
				{
					OFFSET 3.198488 0.000000 0.000000 
					CHANNELS 3 Zrotation Yrotation Xrotation
					JOINT lForeArm
					{
						OFFSET 10.139888 0.000000 0.000000 
						CHANNELS 3 Yrotation Zrotation Xrotation
						JOINT lHand
						{
							OFFSET 8.370511 0.000000 0.000000 
							CHANNELS 3 Zrotation Yrotation Xrotation
							End Site
							{
								OFFSET 4.083176 0.000000 0.000000 
							}
						}
					}
				}
			}
			JOINT rCollar
			{
				OFFSET -3.470700 6.669187 -0.816635 
				CHANNELS 3 Zrotation Yrotation Xrotation
				JOINT rShldr
				{
					OFFSET -3.198488 0.000000 0.000000 
					CHANNELS 3 Zrotation Yrotation Xrotation
					JOINT rForeArm
					{
						OFFSET -10.139888 0.000000 0.000000 
						CHANNELS 3 Yrotation Zrotation Xrotation
						JOINT rHand
						{
							OFFSET -8.370511 0.000000 0.000000 
							CHANNELS 3 Zrotation Yrotation Xrotation
							End Site
							{
								OFFSET -4.083176 0.000000 0.000000 
							}
						}
					}
				}
			}
		}
	}
	JOINT lThigh
	{
		OFFSET 5.308129 -1.633274 1.361059 
		CHANNELS 3 Xrotation Zrotation Yrotation
		JOINT lShin
		{
			OFFSET -2.041588 -20.007561 0.000000 
			CHANNELS 3 Xrotation Zrotation Yrotation
			JOINT lFoot
			{
				OFFSET 0.000000 -19.190928 -1.224953 
				CHANNELS 3 Xrotation Yrotation Zrotation
				End Site
				{
					OFFSET 0.000000 -2.449906 4.627600 
				}
			}
		}
	}
	JOINT rThigh
	{
		OFFSET -5.308129 -1.633274 1.361059 
		CHANNELS 3 Xrotation Zrotation Yrotation
		JOINT rShin
		{
			OFFSET 2.041588 -20.007561 0.000000 
			CHANNELS 3 Xrotation Zrotation Yrotation
			JOINT rFoot
			{
				OFFSET 0.000000 -19.190928 -1.224953 
				CHANNELS 3 Xrotation Yrotation Zrotation
				End Site
				{
					OFFSET 0.000000 -2.449906 4.627600 
				}
			}
		}
	}
}
MOTION
Frames: 8
Frame Time: 0.016667
3.509517 19.680775 -12.585869 -19.241997 -26.525843 -4.947186 59.051437 26.674835 14.218618 5.571518 0.810531 1.621196 -3.630877 2.360628 -0.129681 -2.208426 -6.727896 23.747534 -7.437947 -20.893847 2.305155 -47.445183 -24.739399 1.944042 -84.216019 1.917423 -0.317031 -32.092262 8.878034 24.941231 9.173207 22.128275 3.033066 55.679169 12.017852 2.279620 52.710373 5.000000 10.451884 6.754432 -13.802237 15.207661 -97.293365 23.251757 -17.949894 144.988968 8.467976 -3.663203 -39.590733 7.383290 1.778358 -15.856443 -4.691671 -39.994919 144.975601 -7.870346 2.913703 -77.948158 -6.652086 -13.684879 
3.505657 19.680775 -12.591746 -19.225510 -26.543400 -5.003928 59.094387 26.666294 14.304254 5.532004 0.781236 1.640726 -3.621068 2.341317 -0.126762 -2.144282 -6.702582 23.716192 -7.460260 -20.922110 2.314662 -47.430302 -24.713341 1.932279 -84.235596 1.946344 -0.323157 -32.145569 8.897753 25.017271 9.202324 22.138241 3.041496 55.668724 11.998434 2.299010 52.703304 5.000000 10.432585 6.763963 -14.124873 15.265429 -97.323784 23.300421 -17.970671 144.979233 8.468566 -3.663466 -39.616295 7.403751 1.821849 -15.905694 -4.653955 -39.987770 144.982986 -7.845013 2.929689 -77.905235 -6.700506 -13.742101 
3.501850 19.680775 -12.596427 -19.208969 -26.561708 -5.038849 59.116913 26.662262 14.353068 5.522181 0.771471 1.660257 -3.631160 2.310889 -0.132032 -2.113839 -6.703083 23.706505 -7.467959 -20.942350 2.310971 -47.415653 -24.693449 1.932181 -84.254997 1.975720 -0.323594 -32.184475 8.968620 25.049646 9.202324 22.138241 3.041496 55.648968 11.998704 2.308578 52.666229 5.000000 10.447052 6.778550 -14.497101 15.408464 -97.383636 23.339485 -17.974640 144.989456 8.473434 -3.664694 -39.572163 7.421023 1.869402 -15.944587 -4.614439 -39.990257 144.984009 -7.850592 2.913099 -77.895462 -6.678062 -13.731350 
3.498092 19.680775 -12.599915 -19.194324 -26.561321 -5.047576 59.135941 26.656937 14.371431 5.522505 0.781234 1.679787 -3.650582 2.262610 -0.124734 -2.104073 -6.703082 23.706507 -7.477909 -20.932274 2.312771 -47.401375 -24.700970 1.918242 -84.293823 1.986197 -0.315681 -32.203518 9.078927 25.045071 9.192233 22.138203 3.032200 55.639305 12.018363 2.318285 52.602386 5.000000 10.489171 6.786321 -14.916533 15.643372 -97.413582 23.359018 -17.974737 144.990387 8.483398 -3.661956 -39.551682 7.420944 1.879705 -15.975008 -4.616673 -39.990582 144.983887 -7.840776 2.896338 -77.904778 -6.648349 -13.728227 
3.494336 19.680775 -12.603388 -19.174803 -26.560551 -5.069400 59.137501 26.659676 14.394236 5.522901 0.800763 1.699318 -3.660641 2.222527 -0.128544 -2.089642 -6.711523 23.716188 -7.492045 -20.930605 2.328288 -47.390633 -24.701294 1.914161 -84.322884 2.006310 -0.309532 -32.232815 9.188130 25.030653 9.182683 22.138121 3.032656 55.620041 12.038177 2.318129 52.550098 5.000000 10.520652 6.783265 -15.324244 15.878475 -97.466080 23.388521 -17.999863 144.991699 8.507546 -3.684362 -39.486290 7.393051 1.849369 -15.994427 -4.596856 -39.991829 144.975220 -7.841016 2.862746 -77.957664 -6.643371 -13.687254 
3.489695 19.680779 -12.607237 -19.184561 -26.561325 -5.047575 59.147839 26.664854 14.405494 5.523038 0.800763 1.699317 -3.631344 2.222527 -0.128544 -2.079671 -6.739350 23.697960 -7.513399 -20.939497 2.335449 -47.375320 -24.662872 1.891389 -84.400864 2.007285 -0.298349 -32.268230 9.420753 24.931873 9.192553 22.167456 3.042090 55.600140 12.028684 2.327678 52.505924 5.000000 10.605049 6.834132 -15.761209 16.212566 -97.472984 23.388296 -17.964678 144.993408 8.523025 -3.675558 -39.428902 7.369788 1.848256 -16.003695 -4.576274 -39.992977 144.984879 -7.841056 2.868481 -77.976448 -6.639287 -13.699988 
3.485052 19.680779 -12.611067 -19.188480 -26.571438 -5.038849 59.155769 26.681952 14.439785 5.523311 0.800761 1.718847 -3.611791 2.212871 -0.127085 -2.059919 -6.767185 23.679731 -7.524322 -20.948780 2.339629 -47.360226 -24.630613 1.872128 -84.469177 1.988716 -0.286278 -32.313057 9.657191 24.832504 9.211968 22.196871 3.051071 55.579895 12.009409 2.346971 52.471676 5.000000 10.684533 6.869889 -16.188404 16.557850 -97.484467 23.388382 -17.976713 144.992493 8.522865 -3.702617 -39.369419 7.364905 1.850722 -15.993559 -4.575534 -39.992867 144.983231 -7.840675 2.914485 -78.042603 -6.626589 -13.739675 
3.480618 19.681723 -12.614608 -19.193361 -26.571819 -5.025754 59.182987 26.701654 14.477646 5.523241 0.790995 1.718846 -3.592259 2.212871 -0.127085 -2.045259 -6.803465 23.672352 -7.541484 -20.949265 2.336563 -47.341393 -24.599348 1.839546 -84.547203 1.970446 -0.270285 -32.449947 10.017938 24.759157 9.231461 22.216526 3.060005 55.560143 12.009682 2.356539 52.435478 5.000000 10.767333 6.894536 -16.571003 16.989513 -97.506927 23.378765 -17.990450 144.992630 8.527327 -3.708856 -39.322357 7.347382 1.831100 -16.002813 -4.554933 -39.994015 144.983871 -7.840764 2.896372 -78.090530 -6.589804 -13.748860 
